<svg width="15" height="15" viewBox="0 0 15 15" fill="none" xmlns="http://www.w3.org/2000/svg">
<path d="M5.99765 11.1947L8.17765 13.3647C8.3114 13.5018 8.47863 13.6016 8.66279 13.6542C8.84695 13.7068 9.04166 13.7105 9.22765 13.6647C9.4148 13.6212 9.58761 13.5303 9.72946 13.4007C9.87132 13.2711 9.97745 13.1072 10.0376 12.9247L13.6176 2.19472C13.6924 1.99367 13.7078 1.7754 13.6621 1.56585C13.6163 1.35629 13.5114 1.16427 13.3598 1.01261C13.2081 0.860949 13.0161 0.756024 12.8065 0.710308C12.597 0.664592 12.3787 0.680007 12.1776 0.754722L1.44765 4.33472C1.2589 4.39919 1.09079 4.5129 0.960696 4.66409C0.830602 4.81528 0.743243 4.99847 0.707647 5.19472C0.670907 5.37321 0.679086 5.55803 0.73145 5.73258C0.783814 5.90713 0.878722 6.06593 1.00765 6.19472L3.74765 8.93472L3.65765 12.4047L5.99765 11.1947Z" stroke="white" stroke-width="1.37" stroke-linecap="round" stroke-linejoin="round"/>
<path d="M13.2976 0.974609L3.74756 8.93461" stroke="white" stroke-width="1.37" stroke-linecap="round" stroke-linejoin="round"/>
</svg>
