<svg width="20" height="20" viewBox="0 0 20 20" fill="none" xmlns="http://www.w3.org/2000/svg">
<path d="M2.5 6.5C2.5 5.09987 2.5 4.3998 2.77248 3.86502C3.01217 3.39462 3.39462 3.01217 3.86502 2.77248C4.3998 2.5 5.09987 2.5 6.5 2.5H13.5C14.9001 2.5 15.6002 2.5 16.135 2.77248C16.6054 3.01217 16.9878 3.39462 17.2275 3.86502C17.5 4.3998 17.5 5.09987 17.5 6.5V13.5C17.5 14.9001 17.5 15.6002 17.2275 16.135C16.9878 16.6054 16.6054 16.9878 16.135 17.2275C15.6002 17.5 14.9001 17.5 13.5 17.5H6.5C5.09987 17.5 4.3998 17.5 3.86502 17.2275C3.39462 16.9878 3.01217 16.6054 2.77248 16.135C2.5 15.6002 2.5 14.9001 2.5 13.5V6.5Z" stroke="#BA24D5" stroke-linecap="round" stroke-linejoin="round"/>
<path fill-rule="evenodd" clip-rule="evenodd" d="M9.99715 7.55659C9.16408 6.58267 7.77489 6.32068 6.73112 7.21251C5.68735 8.10433 5.5404 9.59541 6.36008 10.6502C6.88509 11.3257 8.22965 12.5785 9.12853 13.392C9.42724 13.6623 9.57659 13.7974 9.75549 13.8516C9.90927 13.8982 10.085 13.8982 10.2388 13.8516C10.4177 13.7974 10.5671 13.6623 10.8658 13.392C11.7646 12.5785 13.1092 11.3257 13.6342 10.6502C14.4539 9.59541 14.3249 8.09495 13.2632 7.21251C12.2015 6.33007 10.8302 6.58267 9.99715 7.55659Z" stroke="#BA24D5" stroke-linecap="round" stroke-linejoin="round"/>
</svg>
