<svg width="20" height="20" viewBox="0 0 20 20" fill="none" xmlns="http://www.w3.org/2000/svg">
<path d="M14.7873 2.34374C15.5912 1.51335 16.9196 1.5026 17.7369 2.31989C18.5318 3.11479 18.5466 4.39893 17.7702 5.21193L15.4547 7.63674C15.2732 7.8268 15.1824 7.92183 15.1265 8.03313C15.077 8.13166 15.0475 8.23903 15.0398 8.34903C15.0311 8.47328 15.0607 8.60131 15.1197 8.85738L16.5597 15.097C16.6203 15.3599 16.6506 15.4913 16.6409 15.6184C16.6322 15.7309 16.6008 15.8405 16.5485 15.9405C16.4894 16.0535 16.394 16.1489 16.2033 16.3396L15.8943 16.6486C15.3892 17.1537 15.1366 17.4063 14.8781 17.452C14.6524 17.4919 14.4202 17.4371 14.2362 17.3005C14.0254 17.144 13.9125 16.8051 13.6866 16.1274L12.0118 11.103L9.22402 13.8908C9.05761 14.0572 8.97441 14.1404 8.91875 14.2384C8.86945 14.3252 8.83614 14.4202 8.82041 14.5187C8.80267 14.63 8.81566 14.747 8.84165 14.9809L8.99474 16.3587C9.02073 16.5926 9.03372 16.7095 9.01597 16.8208C9.00025 16.9194 8.96694 17.0143 8.91764 17.1011C8.86198 17.1991 8.77878 17.2823 8.61237 17.4487L8.44778 17.6133C8.05357 18.0075 7.85646 18.2046 7.63742 18.2617C7.4453 18.3118 7.24161 18.2916 7.06304 18.2049C6.85945 18.1059 6.70482 17.874 6.39557 17.4101L5.08864 15.4497C5.03339 15.3668 5.00576 15.3254 4.97369 15.2878C4.9452 15.2544 4.91412 15.2233 4.88074 15.1949C4.84315 15.1628 4.80171 15.1352 4.71884 15.0799L2.75844 13.773C2.29456 13.4637 2.06263 13.3091 1.96369 13.1055C1.87692 12.9269 1.85675 12.7232 1.90682 12.5311C1.9639 12.3121 2.16101 12.115 2.55523 11.7208L2.71981 11.5562C2.88622 11.3898 2.96942 11.3066 3.0674 11.2509C3.15421 11.2016 3.24916 11.1683 3.34775 11.1526C3.45903 11.1348 3.57597 11.1478 3.80987 11.1738L5.18769 11.3269C5.42158 11.3529 5.53853 11.3659 5.64981 11.3481C5.74839 11.3324 5.84335 11.2991 5.93015 11.2498C6.02813 11.1941 6.11133 11.1109 6.27774 10.9445L9.06551 8.15676L4.04111 6.48196C3.36342 6.25606 3.02457 6.14311 2.86808 5.93236C2.73143 5.74832 2.67661 5.51613 2.71654 5.29041C2.76226 5.03192 3.01482 4.77936 3.51994 4.27424L3.82891 3.96526C4.01966 3.77452 4.11503 3.67915 4.22802 3.62007C4.32803 3.56778 4.43762 3.53635 4.55014 3.52769C4.67727 3.5179 4.80869 3.54823 5.07153 3.60888L11.2875 5.04333C11.5458 5.10294 11.6749 5.13274 11.7996 5.12387C11.92 5.11531 12.0371 5.08071 12.1428 5.02244C12.2523 4.9621 12.3445 4.86687 12.5288 4.67643L14.7873 2.34374Z" stroke="#444CE7" stroke-linecap="round" stroke-linejoin="round"/>
</svg>
