<svg width="52" height="28" viewBox="0 0 52 28" fill="none" xmlns="http://www.w3.org/2000/svg">
<path d="M51.154 7.79886H49.928C49.4938 7.79886 49.1362 7.4403 49.1362 7.00491V6.23657C49.1362 4.86314 48.0219 3.74263 46.649 3.74263C45.2793 3.74263 44.1619 4.85994 44.1619 6.23657V10.6001C44.1619 11.0355 43.8043 11.3941 43.3701 11.3941C42.9359 11.3941 42.5879 11.0355 42.5879 10.6001V4.65825C42.5879 3.28482 41.4736 2.16431 40.0943 2.16431C38.7246 2.16431 37.6072 3.28162 37.6072 4.65825V14.8102C37.6072 15.2456 37.2592 15.5946 36.825 15.5946C36.3908 15.5946 36.0332 15.2456 36.0332 14.8102V2.50033C36.0332 1.1269 34.9189 0 33.546 0C32.1763 0 31.0589 1.1269 31.0589 2.50033V11.8901C31.0589 12.3255 30.7013 12.6744 30.2671 12.6744C29.8328 12.6744 29.4848 12.3255 29.4848 11.8901V5.42003C29.4848 4.03702 28.3706 2.9197 26.9913 2.9197C25.6216 2.9197 24.5042 4.03702 24.5042 5.42003V7.00794C24.5042 7.41773 24.1976 7.76028 23.7986 7.79229C23.773 7.80189 23.7475 7.80189 23.7219 7.80189H22.0777C21.9596 7.80189 21.8478 7.82751 21.7457 7.86913C21.4392 7.99718 21.2252 8.30452 21.2252 8.65348C21.2252 9.12409 21.6084 9.50828 22.0777 9.50828H23.722C24.054 9.50828 24.3701 9.44105 24.667 9.3194C25.5705 8.94483 26.209 8.05481 26.209 7.00478V5.41687C26.209 4.98148 26.557 4.62292 26.9913 4.62292C27.4255 4.62292 27.783 4.98148 27.783 5.41687V11.8869C27.783 13.2604 28.8973 14.3809 30.2702 14.3809C31.6399 14.3809 32.7637 13.2636 32.7637 11.8869V2.49717C32.7637 2.06177 33.1117 1.70321 33.546 1.70321C33.9802 1.70321 34.3282 2.06177 34.3282 2.49717V14.807C34.3282 16.1805 35.4424 17.301 36.8217 17.301C38.1914 17.301 39.3089 16.1837 39.3089 14.807V4.65508C39.3089 4.21969 39.6569 3.87074 40.0911 3.87074C40.5253 3.87074 40.8829 4.21969 40.8829 4.65508V10.5969C40.8829 11.9704 41.9971 13.0973 43.37 13.0973C44.7397 13.0973 45.8636 11.9704 45.8636 10.5969V6.2334C45.8636 5.79801 46.2116 5.44905 46.6458 5.44905C47.08 5.44905 47.428 5.79801 47.428 6.2334V7.00175C47.428 8.38476 48.5518 9.50208 49.9215 9.50208H51.1475C51.6169 9.50208 52 9.11791 52 8.64727C52 8.17666 51.6169 7.79246 51.1475 7.79246L51.154 7.79886Z" fill="black"/>
<path d="M14.6489 23.7284C14.7944 24.1736 15.2799 24.4122 15.7239 24.2663C17.5616 23.6557 19.1528 22.5281 20.3393 20.995C20.6007 20.6608 20.5622 20.1949 20.2847 19.8942C20.2565 19.8637 20.2218 19.8261 20.1844 19.7997C19.8093 19.5065 19.2755 19.5832 18.9901 19.9527C18.0131 21.2084 16.6938 22.1404 15.1808 22.6503C14.7369 22.7962 14.4925 23.2761 14.6444 23.7282L14.6489 23.7284Z" fill="black"/>
<path d="M22.1237 17.2104C22.1845 16.9227 22.0982 16.6407 21.9139 16.441C21.8033 16.3212 21.6579 16.2249 21.4853 16.1888C21.0241 16.0803 20.5611 16.3704 20.4664 16.8334C20.3933 17.1455 20.2977 17.4567 20.1957 17.7608C20.0293 18.2074 20.2568 18.6943 20.7069 18.8567C21.1479 19.0188 21.636 18.784 21.7933 18.337C21.9272 17.9684 22.0321 17.5919 22.1259 17.2127L22.1237 17.2104Z" fill="black"/>
<path d="M24.0183 21.8373V21.8277C24.1971 21.5556 24.3503 21.2803 24.5036 20.9922C24.5291 20.941 24.5546 20.8994 24.5706 20.8481C24.7398 20.5152 24.8867 20.1662 25.0304 19.8237V19.8141C25.1676 19.4811 25.2858 19.1482 25.3879 18.8056C25.3975 18.78 25.4039 18.7544 25.4135 18.7288C25.5157 18.3798 25.6082 18.0212 25.6849 17.6627C25.7455 17.3713 25.7966 17.0736 25.8381 16.7759C25.8796 16.4782 25.9147 16.1772 25.9307 15.8795C25.9562 15.5881 25.9658 15.3064 25.9658 15.0183C25.9658 14.967 25.9658 14.9062 25.9562 14.855C25.9562 14.7781 25.9562 14.6917 25.9467 14.6085V14.362C25.9467 14.2755 25.9371 14.1827 25.9307 14.0962C25.9147 13.8145 25.8796 13.5232 25.8445 13.235C25.8445 13.219 25.8349 13.1998 25.8349 13.1838C25.8094 12.9693 25.7743 12.758 25.7328 12.5435C25.7232 12.5179 25.7168 12.4827 25.7168 12.4571C25.6912 12.329 25.6657 12.201 25.6306 12.0729C25.5795 11.8584 25.5284 11.6535 25.4678 11.4422C25.4678 11.4358 25.4646 11.4294 25.4582 11.4262C25.4231 11.3078 25.3911 11.1957 25.356 11.0773C25.34 11.0165 25.3209 10.9588 25.2953 10.9076C25.2347 10.9332 25.1836 10.9492 25.1261 10.9684C24.7526 11.1125 24.3503 11.1989 23.9353 11.2149C23.8586 11.2245 23.7916 11.2245 23.715 11.2245H23.6032C23.6543 11.343 23.6894 11.4711 23.7309 11.5927L23.7449 11.6374L23.7452 11.6381C23.7748 11.7329 23.8028 11.8221 23.8331 11.9161V11.9257C23.8682 12.0377 23.8938 12.1562 23.9193 12.2682C23.9449 12.3611 23.9704 12.4571 23.9864 12.5499C24.047 12.7965 24.0981 13.0366 24.13 13.2831V13.2991C24.1651 13.488 24.1811 13.6672 24.1971 13.8529C24.213 13.9714 24.2322 14.093 24.2322 14.2115C24.2833 14.9798 24.2577 15.7578 24.1556 16.5069C24.0119 17.5218 23.7373 18.5142 23.3382 19.4523C23.252 19.6668 23.1499 19.8781 23.0413 20.083C23.0254 20.1246 22.9998 20.1694 22.9807 20.211C22.8785 20.4159 22.7604 20.6112 22.639 20.8097C22.5113 21.0306 22.374 21.2451 22.2304 21.4596C22.0867 21.6741 21.9334 21.8694 21.7706 22.0742C21.7642 22.0807 21.761 22.0871 21.761 22.0903C21.4386 22.484 21.0969 22.8586 20.7298 23.2076C20.5414 23.3965 20.3467 23.5661 20.1519 23.7294C19.9635 23.8735 19.7784 24.0207 19.59 24.1648C19.2069 24.4369 18.7982 24.693 18.3736 24.9235C18.2299 25.01 18.083 25.0868 17.9298 25.154C17.7606 25.2405 17.5977 25.3173 17.4285 25.3845C17.2593 25.471 17.0805 25.5382 16.9081 25.599C16.4483 25.7687 15.9886 25.916 15.5193 26.0184C15.2383 26.0793 14.9574 26.1369 14.6668 26.1817C14.3858 26.2233 14.0953 26.2585 13.8143 26.2841C13.5429 26.3098 13.262 26.3194 12.9874 26.3194C12.9108 26.3194 12.8246 26.3098 12.7416 26.3098H12.7001C12.5117 26.3098 12.3265 26.3001 12.1286 26.2841C11.8476 26.2681 11.5571 26.2329 11.2761 26.1817C10.9951 26.1465 10.7046 26.0889 10.4236 26.0184C10.2799 25.9832 10.1331 25.9512 9.99897 25.9064C9.8553 25.8648 9.70843 25.8199 9.57434 25.7783C9.39555 25.7175 9.21675 25.6599 9.04754 25.599C9.03158 25.5894 9.022 25.5894 9.01242 25.5894C8.6708 25.4518 8.33876 25.3173 8.01625 25.154C7.85342 25.0772 7.69379 24.9908 7.53096 24.8979C7.36813 24.8115 7.21488 24.7282 7.05524 24.6258C6.38158 24.216 5.75257 23.7294 5.19073 23.182C4.83315 22.8394 4.49153 22.4745 4.185 22.0903C4.17542 22.0807 4.17542 22.0743 4.17542 22.0743C4.01259 21.8694 3.85934 21.6645 3.71567 21.4596C3.572 21.2451 3.43471 21.0338 3.307 20.8097C3.18887 20.6145 3.07713 20.416 2.96538 20.2111C2.85363 19.9966 2.75147 19.7853 2.66846 19.5708C2.61737 19.4779 2.57587 19.3755 2.54075 19.2731C2.46412 19.0938 2.39708 18.9241 2.33641 18.7448C2.25021 18.5047 2.17358 18.2582 2.10654 18.0181C2.09696 18.0085 2.09696 18.0021 2.09696 17.9925C2.04588 17.8036 2.00437 17.6179 1.96925 17.429C1.93413 17.3106 1.90859 17.1889 1.89263 17.0705C1.87666 17.0096 1.86708 16.9584 1.85751 16.9072C1.82239 16.7119 1.79684 16.523 1.7713 16.3341C1.74576 16.1132 1.7298 15.8891 1.71064 15.6682C1.69468 15.4089 1.69148 15.1496 1.69468 14.8903C1.69468 14.6886 1.70425 14.4965 1.72022 14.3012V14.2564C1.72022 14.2308 1.72022 14.2148 1.7298 14.1892V14.154C1.97564 10.8917 3.61989 7.81192 6.3784 5.82062C6.61786 5.64134 6.87327 5.47167 7.12869 5.318C7.30748 5.20595 7.49586 5.1035 7.68103 5.00106C7.70657 4.99145 7.74169 4.97544 7.76724 4.95944C7.87898 4.89861 7.99711 4.84099 8.10886 4.78976C8.24615 4.72253 8.38024 4.66171 8.51753 4.61048C8.82403 4.47282 9.14011 4.35437 9.44659 4.25192C9.5743 4.2103 9.69243 4.17509 9.82014 4.13987C9.96381 4.08865 10.1171 4.05343 10.2639 4.02142C10.3757 3.9862 10.4778 3.96059 10.5864 3.94459C10.8418 3.89336 11.1068 3.84214 11.3622 3.80692C11.5506 3.77171 11.7358 3.7557 11.9241 3.73969C12.6234 3.67886 13.3193 3.67886 14.0186 3.73969C14.2069 3.7557 14.3921 3.77491 14.5805 3.80692C14.8359 3.84214 15.1009 3.89336 15.3563 3.94459C15.4681 3.9702 15.5702 3.99581 15.6788 4.02142C15.8225 4.05664 15.9757 4.09825 16.1226 4.13987C16.2503 4.17509 16.3684 4.21671 16.4961 4.25192C16.8122 4.36397 17.1187 4.47282 17.4252 4.61048C17.5625 4.66171 17.6966 4.72893 17.8339 4.78976C18.2585 4.99465 18.6671 5.22516 19.0694 5.48127C19.1971 5.5581 19.3248 5.65095 19.4526 5.73739C19.5803 5.83023 19.708 5.92627 19.8357 6.01911C19.8453 6.01911 19.8453 6.02872 19.8516 6.02872C20.0911 6.208 20.321 6.40328 20.5413 6.60177C20.9659 6.28483 21.4959 6.09915 22.0642 6.09915H22.4473C21.962 5.57731 21.4416 5.10026 20.8733 4.66491C20.2954 4.21991 19.6888 3.83575 19.0598 3.50276C19.0247 3.47715 18.9928 3.46115 18.9576 3.44194C18.8299 3.37471 18.7118 3.31388 18.5841 3.26266C18.4213 3.18582 18.2616 3.10899 18.0988 3.04176C17.7763 2.9041 17.4443 2.77604 17.1026 2.66719C16.9398 2.60637 16.7706 2.55514 16.6014 2.50392C16.4322 2.4623 16.2598 2.41108 16.0905 2.36626C15.9373 2.33104 15.7745 2.29903 15.6212 2.26381C15.5957 2.25421 15.5701 2.2478 15.5446 2.2478C15.4009 2.22219 15.254 2.19658 15.1104 2.17097C14.9156 2.13576 14.7177 2.10374 14.5229 2.08453C14.2797 2.04969 14.0334 2.03365 13.7901 2.01781L13.7822 2.0173H13.7407C13.5012 2.00129 13.265 1.99169 13.0255 1.99169H12.9234C12.6839 1.99169 12.4476 2.00129 12.2082 2.0173C12.1986 2.0077 12.1826 2.0077 12.1667 2.0173C11.9208 2.03331 11.6718 2.05252 11.426 2.08453C11.2472 2.10054 11.0684 2.12615 10.88 2.16136C10.7108 2.18698 10.5384 2.22219 10.3788 2.2542C10.2095 2.28942 10.0371 2.33104 9.85834 2.36626C9.68913 2.40787 9.5263 2.4527 9.35709 2.50392C9.18787 2.55514 9.01546 2.60636 8.84625 2.66719C8.34499 2.83047 7.85008 3.02575 7.37439 3.26586C7.24668 3.31708 7.11897 3.37791 6.99126 3.44514C6.95614 3.46115 6.92422 3.48036 6.89867 3.50597C6.57621 3.66924 6.26971 3.84852 5.96961 4.04381C5.78124 4.16226 5.59606 4.29032 5.41727 4.41837C5.28956 4.50481 5.16185 4.59765 5.04372 4.7001C2.84713 6.40004 1.31462 8.72105 0.55793 11.2822C0.52281 11.3334 0.506847 11.3846 0.490882 11.4455C0.302511 12.1018 0.174801 12.7613 0.0981761 13.4175C0.0638049 13.6525 0.0477827 13.8936 0.0321505 14.1289L0.0311289 14.1442C-0.0103763 14.6981 -0.0103763 15.2456 0.0311289 15.7834C0.0407073 15.9274 0.0470929 16.0811 0.0662488 16.2284C0.0758272 16.3564 0.0822124 16.4941 0.107754 16.6221C0.123718 16.811 0.149261 16.9903 0.193959 17.1696C0.193959 17.2464 0.209922 17.3136 0.229079 17.3841C0.245043 17.5281 0.280162 17.6754 0.315283 17.8099C0.350403 17.9795 0.391909 18.1428 0.433413 18.3125C0.458955 18.4149 0.484496 18.5078 0.519617 18.6038C0.586665 18.8439 0.663289 19.0808 0.739915 19.3113C0.93467 19.8844 1.17412 20.4478 1.46466 21.0017C1.55087 21.165 1.64346 21.309 1.73604 21.4627C1.79671 21.5748 1.86375 21.6836 1.92441 21.7957C2.05212 22.0101 2.18941 22.215 2.32351 22.4103C2.35862 22.4615 2.40013 22.5128 2.43525 22.564C2.69067 22.9322 2.96205 23.2715 3.25259 23.598C3.35475 23.7165 3.45692 23.8285 3.55909 23.9406C3.6868 24.0783 3.81451 24.2127 3.9518 24.3408C4.01246 24.4016 4.06992 24.4528 4.13059 24.5104C4.32534 24.6993 4.52968 24.8786 4.73401 25.0483C4.96389 25.2372 5.20334 25.4229 5.4396 25.5957C5.67906 25.7654 5.91532 25.9287 6.16435 26.0823C6.18031 26.0919 6.18989 26.0984 6.19947 26.0984C6.46447 26.2616 6.72627 26.4057 7.00084 26.5498C7.18922 26.6522 7.38397 26.745 7.57234 26.8219C7.66493 26.8731 7.7671 26.9147 7.86927 26.9595C8.26835 27.1388 8.67064 27.2925 9.07933 27.4109C9.24216 27.4622 9.4018 27.5134 9.56463 27.555C9.88709 27.6414 10.2127 27.7183 10.5352 27.7855C10.7044 27.8207 10.8673 27.8463 11.0301 27.8719C11.4292 27.9328 11.8315 27.9744 12.2402 28C16.9081 28 22.6535 24.8805 24.0183 21.8373Z" fill="black"/>
</svg>
